<svg width="1158" height="710" viewBox="0 0 1158 710" fill="none" xmlns="http://www.w3.org/2000/svg">
<g clip-path="url(#clip0)">
<path d="M916.875 35.8127H916.875C864.755 35.8127 822.504 82.7021 822.504 140.543V214.031H845.106L858.191 186.803L854.919 214.031H1000.19L1012.09 189.278L1009.11 214.031H1025.47V156.33C1025.47 89.7701 976.85 35.8127 916.875 35.8127Z" fill="#2F2E41"/>
<path d="M871.322 167.894C871.322 167.894 900.777 236.622 861.504 250.368L900.777 379.97L967.542 376.043L985.215 332.842L981.288 268.041L975.397 224.84C975.397 224.84 934.16 234.658 938.087 162.003L871.322 167.894Z" fill="#FFB8B8"/>
<path d="M855.613 248.404C855.613 248.404 790.812 242.513 796.703 289.641C802.594 336.769 808.485 346.588 808.485 346.588L814.376 417.28L779.03 438.88H745.647C745.647 438.88 643.536 462.444 694.592 487.972C745.647 513.5 763.32 468.335 763.32 468.335C763.32 468.335 857.577 468.335 863.468 452.626C869.359 436.916 855.613 248.404 855.613 248.404Z" fill="#FFB8B8"/>
<path d="M981.288 228.768C981.288 228.768 1042.16 207.167 1046.09 254.295C1050.02 301.423 1050.02 305.351 1050.02 305.351L1061.8 372.115C1061.8 372.115 1085.36 431.025 1085.36 448.699C1085.36 466.372 1103.04 521.354 1103.04 521.354C1103.04 521.354 1126.6 597.937 1101.07 595.974C1075.54 594.01 1071.62 513.5 1071.62 513.5L1018.6 407.461L1002.89 342.66L981.288 228.768Z" fill="#FFB8B8"/>
<path d="M865.431 240.55H849.722L847.758 323.024C847.758 323.024 822.231 358.37 853.649 389.788L861.504 440.844L1004.85 434.953L1014.67 381.934C1014.67 381.934 1034.31 338.733 1006.82 299.46L981.288 218.949H967.542C967.542 218.949 999.378 336.334 932.196 338.733C877.213 340.697 865.431 240.55 865.431 240.55Z" fill="#FF0068"/>
<path d="M935.65 708.603C935.901 683.63 936.12 668.633 936.12 668.633C936.12 668.633 934.638 683.63 932.123 708.603H777.9C818.652 580.199 856.024 474.67 857.537 470.433C857.546 470.386 857.56 470.341 857.579 470.297L862.337 454.445V454.435L864.352 447.714V447.683L866.481 440.638L869.361 431.027L996.993 427.103L1000.56 435.128L1012.71 462.439C1013.77 462.744 1014.77 463.216 1015.67 463.838C1037.52 478.145 1064.79 582.964 1089.64 708.603L935.65 708.603Z" fill="#2F2E41"/>
<path d="M1010.74 411.389L855.613 417.28C855.613 417.28 848.533 470.299 855.613 470.299C857.577 470.299 1018.6 484.045 1016.63 460.48C1014.67 436.916 1010.74 411.389 1010.74 411.389Z" fill="#2F2E41"/>
<path d="M901.672 190.384C932.144 190.384 956.847 165.682 956.847 135.21C956.847 104.737 932.144 80.035 901.672 80.035C871.2 80.035 846.498 104.737 846.498 135.21C846.498 165.682 871.2 190.384 901.672 190.384Z" fill="#FFB8B8"/>
<path d="M943.703 64.6624C934.227 52.462 920.252 44.7343 904.651 44.7343H902.799C867.076 44.7343 838.117 77.0591 838.117 116.934V116.934H850.087L852.02 102.22L854.854 116.934H925.846L931.794 104.486L930.307 116.934H944.273C950.79 149.3 941.426 181.665 916.181 214.03H939.972L951.867 189.134L948.893 214.03H994.245L1003.17 156.768C1003.17 113.884 978.25 77.5196 943.703 64.6624Z" fill="#2F2E41"/>
<path d="M956.742 70.6921C976.263 70.6921 992.088 54.8671 992.088 35.3461C992.088 15.825 976.263 0 956.742 0C937.221 0 921.396 15.825 921.396 35.3461C921.396 54.8671 937.221 70.6921 956.742 70.6921Z" fill="#2F2E41"/>
<path d="M647.905 365.457C674.515 365.457 696.088 343.885 696.088 317.274C696.088 290.663 674.515 269.091 647.905 269.091C621.294 269.091 599.721 290.663 599.721 317.274C599.721 343.885 621.294 365.457 647.905 365.457Z" fill="#FF0068"/>
<path d="M302.533 279.597C302.517 280.977 302.163 282.333 301.502 283.546C300.842 284.758 299.895 285.791 298.744 286.554L298.427 286.752H155.692L156.267 285.003C156.366 284.692 166.814 254.37 213.07 260.224C217.433 258.733 260.006 244.832 285.49 260.449C296.797 267.379 302.533 273.821 302.533 279.597Z" fill="#6C7B8F"/>
<path d="M530.463 526.283C544.83 526.592 556.258 537.003 556.258 537.003C556.258 537.003 544.394 546.914 530.027 546.606C515.661 546.298 504.232 535.887 504.232 535.887C504.232 535.887 516.097 525.975 530.463 526.283Z" fill="#FF0068"/>
<path d="M458.236 477.243C471.216 483.41 486.099 479.228 486.099 479.228C486.099 479.228 479.938 465.049 466.959 458.883C453.979 452.717 439.096 456.898 439.096 456.898C439.096 456.898 445.257 471.077 458.236 477.243Z" fill="#FF0068"/>
<path d="M459.556 471.116C473.866 469.808 486.391 478.869 486.391 478.869C486.391 478.869 475.716 490.05 461.406 491.358C447.095 492.666 434.57 483.605 434.57 483.605C434.57 483.605 445.245 472.423 459.556 471.116Z" fill="#3F3D56"/>
<path d="M512.012 473.593C510.64 487.897 519.645 500.463 519.645 500.463C519.645 500.463 530.874 489.837 532.246 475.533C533.618 461.229 524.612 448.663 524.612 448.663C524.612 448.663 513.383 459.289 512.012 473.593Z" fill="#3F3D56"/>
<path d="M579.405 561.32C571.899 573.573 574.482 588.816 574.482 588.816C574.482 588.816 589.233 584.191 596.739 571.937C604.245 559.683 601.662 544.441 601.662 544.441C601.662 544.441 586.911 549.066 579.405 561.32Z" fill="#3F3D56"/>
<path d="M557.63 694.549L558.724 693.81C554.869 688.215 552.764 681.6 552.676 674.805C552.707 664.867 557.589 655.674 562.31 646.784C563.186 645.134 564.06 643.489 564.9 641.845C568.427 635.143 571.237 628.087 573.285 620.795C580.608 593.581 573.398 561.474 553.999 534.908C538.61 513.834 515.669 495.405 483.867 478.57L483.249 479.736C514.87 496.476 537.664 514.778 552.933 535.687C572.099 561.933 579.23 593.621 572.01 620.452C569.986 627.655 567.209 634.624 563.725 641.245C562.887 642.882 562.017 644.521 561.144 646.165C556.348 655.197 551.388 664.536 551.356 674.802C551.443 681.861 553.627 688.734 557.63 694.549Z" fill="#3F3D56"/>
<path d="M421.179 480.304C428.105 480.304 433.719 474.69 433.719 467.763C433.719 460.837 428.105 455.223 421.179 455.223C414.252 455.223 408.638 460.837 408.638 467.763C408.638 474.69 414.252 480.304 421.179 480.304Z" fill="#3F3D56"/>
<path d="M737.032 709.366H46.624L58.274 694.707L229.206 479.657L237.074 469.756L307.699 380.901L391.828 275.056L500.096 411.27L737.032 709.366Z" fill="#3F3D56"/>
<path d="M505.356 413.747C500.909 416.386 496.266 418.681 491.468 420.611C467.012 430.331 439.814 430.599 415.171 421.363C386.031 410.301 361.812 386.319 330.959 381.906C321.52 380.555 311.983 381.147 302.438 381.718L391.168 270.085L505.356 413.747Z" fill="#6C7B8F"/>
<path d="M538.171 270.387C540.522 277.658 538.962 285.567 537.046 292.965C535.131 300.362 532.852 307.929 533.831 315.508C535.946 331.885 551.982 342.388 566.866 349.537C581.751 356.686 598.497 364.105 605.057 379.259C608.685 387.641 608.514 397.096 609.926 406.12C612.991 425.169 623.122 442.363 638.3 454.275C625.662 453.975 614.341 446.291 605.394 437.359C596.447 428.427 589.026 417.977 579.399 409.783C566.424 398.74 550.219 392.417 534.988 384.781C519.756 377.146 504.58 367.33 496.696 352.226C488.636 336.785 489.528 317.904 495.171 301.426C499.362 289.188 507.069 270.197 516.992 261.461C524.803 254.584 535.217 261.245 538.171 270.387Z" fill="#6C7B8F"/>
<path d="M931.821 612.963H477.049V709.33H931.821V612.963Z" fill="#F2F2F2"/>
<path d="M462.528 623.524L512.032 519.896H907.399L944.362 623.524H462.528Z" fill="#3F3D56"/>
<path d="M769.449 526.497H585.957V587.221H769.449V526.497Z" fill="#F2F2F2"/>
<path d="M597.837 476.993L568.795 537.718H786.611L769.449 476.993H597.837Z" fill="#3F3D56"/>
<path d="M747.008 632.104H602.128V709.33H747.008V632.104Z" fill="#CCCCCC"/>
<path d="M572.095 634.744H494.87V709.33H572.095V634.744Z" fill="#CCCCCC"/>
<path d="M812.023 639.365H772.09V709.33H812.023V639.365Z" fill="#3F3D56"/>
<path d="M874.727 643.325H855.255V661.476H874.727V643.325Z" fill="#FF0068"/>
<path d="M900.798 643.325H881.327V661.476H900.798V643.325Z" fill="#FF0068"/>
<path d="M874.727 668.077H855.255V686.888H874.727V668.077Z" fill="#FF0068"/>
<path d="M900.798 668.077H881.327V686.888H900.798V668.077Z" fill="#FF0068"/>
<path d="M618.026 543.113H602.788V557.318H618.026V543.113Z" fill="#3F3D56"/>
<path d="M638.43 543.113H623.192V557.318H638.43V543.113Z" fill="#3F3D56"/>
<path d="M618.026 562.484H602.788V577.206H618.026V562.484Z" fill="#3F3D56"/>
<path d="M638.43 562.484H623.192V577.206H638.43V562.484Z" fill="#3F3D56"/>
<path d="M732.214 543.113H716.976V557.318H732.214V543.113Z" fill="#3F3D56"/>
<path d="M752.618 543.113H737.38V557.318H752.618V543.113Z" fill="#3F3D56"/>
<path d="M732.214 562.484H716.976V577.206H732.214V562.484Z" fill="#3F3D56"/>
<path d="M752.618 562.484H737.38V577.206H752.618V562.484Z" fill="#3F3D56"/>
<path d="M675.45 543.113H660.212V557.318H675.45V543.113Z" fill="#3F3D56"/>
<path d="M695.854 543.113H680.616V557.318H695.854V543.113Z" fill="#3F3D56"/>
<path d="M675.45 562.484H660.212V577.206H675.45V562.484Z" fill="#3F3D56"/>
<path d="M695.854 562.484H680.616V577.206H695.854V562.484Z" fill="#3F3D56"/>
<path d="M790.595 646.453H781V655.397H790.595V646.453Z" fill="#F2F2F2"/>
<path d="M803.442 646.453H793.847V655.397H803.442V646.453Z" fill="#F2F2F2"/>
<path d="M790.595 658.65H781V667.919H790.595V658.65Z" fill="#F2F2F2"/>
<path d="M803.442 658.65H793.847V667.919H803.442V658.65Z" fill="#F2F2F2"/>
<path d="M806.742 681.938C808.2 681.938 809.382 680.756 809.382 679.298C809.382 677.839 808.2 676.657 806.742 676.657C805.284 676.657 804.102 677.839 804.102 679.298C804.102 680.756 805.284 681.938 806.742 681.938Z" fill="#F2F2F2"/>
<path d="M647.575 461.163H625.793V466.397H630.15V481.624H643.219V466.397H647.575V461.163Z" fill="#F2F2F2"/>
<path d="M602.962 686.881C599.21 700.752 586.357 709.342 586.357 709.342C586.357 709.342 579.588 695.444 583.34 681.573C587.093 667.701 599.945 659.111 599.945 659.111C599.945 659.111 606.714 673.009 602.962 686.881Z" fill="#FF0068"/>
<path d="M568.826 686.881C572.578 700.752 585.431 709.342 585.431 709.342C585.431 709.342 592.2 695.444 588.447 681.573C584.695 667.701 571.842 659.111 571.842 659.111C571.842 659.111 565.073 673.009 568.826 686.881Z" fill="#FF0068"/>
<path d="M574.339 683.9C584.636 693.923 585.893 709.331 585.893 709.331C585.893 709.331 570.457 708.488 560.16 698.465C549.864 688.442 548.606 673.033 548.606 673.033C548.606 673.033 564.042 673.876 574.339 683.9Z" fill="#3F3D56"/>
<path d="M597.448 683.9C587.151 693.923 585.894 709.331 585.894 709.331C585.894 709.331 601.33 708.488 611.627 698.465C621.923 688.442 623.181 673.033 623.181 673.033C623.181 673.033 607.745 673.876 597.448 683.9Z" fill="#3F3D56"/>
<path d="M1157.57 708.68H0V710H1157.57V708.68Z" fill="#3F3D56"/>
<path d="M748.231 333.221C748.215 334.601 747.861 335.957 747.201 337.17C746.541 338.382 745.594 339.415 744.443 340.178L744.126 340.376H601.391L601.965 338.626C602.064 338.316 612.513 307.994 658.769 313.848C663.132 312.357 705.705 298.456 731.189 314.073C742.496 321.003 748.231 327.445 748.231 333.221Z" fill="#6C7B8F"/>
<path d="M308.857 500.966C308.841 502.347 308.487 503.703 307.827 504.915C307.166 506.128 306.22 507.161 305.069 507.923L304.752 508.121H162.017L162.591 506.372C162.69 506.062 173.139 475.739 219.395 481.594C223.758 480.102 266.33 466.202 291.815 481.818C303.121 488.749 308.857 495.191 308.857 500.966Z" fill="#6C7B8F"/>
</g>
<defs>
<clipPath id="clip0">
<rect width="1157.57" height="710" fill="white"/>
</clipPath>
</defs>
</svg>
